<svg width="157" height="23" viewBox="0 0 157 23" fill="none" xmlns="http://www.w3.org/2000/svg">
<path d="M7.4 17L4.48 11.7H3.66V17H0.24V2.96H5.98C7.08667 2.96 8.02667 3.15333 8.8 3.54C9.58667 3.92667 10.1733 4.46 10.56 5.14C10.9467 5.80667 11.14 6.55333 11.14 7.38C11.14 8.31333 10.8733 9.14667 10.34 9.88C9.82 10.6133 9.04667 11.1333 8.02 11.44L11.26 17H7.4ZM3.66 9.28H5.78C6.40667 9.28 6.87333 9.12667 7.18 8.82C7.5 8.51333 7.66 8.08 7.66 7.52C7.66 6.98667 7.5 6.56667 7.18 6.26C6.87333 5.95333 6.40667 5.8 5.78 5.8H3.66V9.28ZM23.8069 11.24C23.8069 11.56 23.7869 11.8933 23.7469 12.24H16.0069C16.0602 12.9333 16.2802 13.4667 16.6669 13.84C17.0669 14.2 17.5535 14.38 18.1269 14.38C18.9802 14.38 19.5735 14.02 19.9069 13.3H23.5469C23.3602 14.0333 23.0202 14.6933 22.5269 15.28C22.0469 15.8667 21.4402 16.3267 20.7069 16.66C19.9735 16.9933 19.1535 17.16 18.2469 17.16C17.1535 17.16 16.1802 16.9267 15.3269 16.46C14.4735 15.9933 13.8069 15.3267 13.3269 14.46C12.8469 13.5933 12.6069 12.58 12.6069 11.42C12.6069 10.26 12.8402 9.24667 13.3069 8.38C13.7869 7.51333 14.4535 6.84667 15.3069 6.38C16.1602 5.91333 17.1402 5.68 18.2469 5.68C19.3269 5.68 20.2869 5.90667 21.1269 6.36C21.9669 6.81333 22.6202 7.46 23.0869 8.3C23.5669 9.14 23.8069 10.12 23.8069 11.24ZM20.3069 10.34C20.3069 9.75333 20.1069 9.28667 19.7069 8.94C19.3069 8.59333 18.8069 8.42 18.2069 8.42C17.6335 8.42 17.1469 8.58667 16.7469 8.92C16.3602 9.25333 16.1202 9.72667 16.0269 10.34H20.3069ZM29.0311 2.2V17H25.6111V2.2H29.0311ZM30.8295 11.4C30.8295 10.2533 31.0429 9.24667 31.4695 8.38C31.9095 7.51333 32.5029 6.84667 33.2495 6.38C33.9962 5.91333 34.8295 5.68 35.7495 5.68C36.5362 5.68 37.2229 5.84 37.8095 6.16C38.4095 6.48 38.8695 6.9 39.1895 7.42V5.84H42.6095V17H39.1895V15.42C38.8562 15.94 38.3895 16.36 37.7895 16.68C37.2029 17 36.5162 17.16 35.7295 17.16C34.8229 17.16 33.9962 16.9267 33.2495 16.46C32.5029 15.98 31.9095 15.3067 31.4695 14.44C31.0429 13.56 30.8295 12.5467 30.8295 11.4ZM39.1895 11.42C39.1895 10.5667 38.9495 9.89333 38.4695 9.4C38.0029 8.90667 37.4295 8.66 36.7495 8.66C36.0695 8.66 35.4895 8.90667 35.0095 9.4C34.5429 9.88 34.3095 10.5467 34.3095 11.4C34.3095 12.2533 34.5429 12.9333 35.0095 13.44C35.4895 13.9333 36.0695 14.18 36.7495 14.18C37.4295 14.18 38.0029 13.9333 38.4695 13.44C38.9495 12.9467 39.1895 12.2733 39.1895 11.42ZM51.6838 17L49.5438 13.9L47.7438 17H44.0438L47.7238 11.3L43.9438 5.84H47.7838L49.9238 8.92L51.7238 5.84H55.4238L51.6838 11.46L55.5238 17H51.6838ZM67.3616 11.24C67.3616 11.56 67.3416 11.8933 67.3016 12.24H59.5616C59.6149 12.9333 59.8349 13.4667 60.2216 13.84C60.6216 14.2 61.1082 14.38 61.6816 14.38C62.5349 14.38 63.1282 14.02 63.4616 13.3H67.1016C66.9149 14.0333 66.5749 14.6933 66.0816 15.28C65.6016 15.8667 64.9949 16.3267 64.2616 16.66C63.5282 16.9933 62.7082 17.16 61.8016 17.16C60.7082 17.16 59.7349 16.9267 58.8816 16.46C58.0282 15.9933 57.3616 15.3267 56.8816 14.46C56.4016 13.5933 56.1616 12.58 56.1616 11.42C56.1616 10.26 56.3949 9.24667 56.8616 8.38C57.3416 7.51333 58.0082 6.84667 58.8616 6.38C59.7149 5.91333 60.6949 5.68 61.8016 5.68C62.8816 5.68 63.8416 5.90667 64.6816 6.36C65.5216 6.81333 66.1749 7.46 66.6416 8.3C67.1216 9.14 67.3616 10.12 67.3616 11.24ZM63.8616 10.34C63.8616 9.75333 63.6616 9.28667 63.2616 8.94C62.8616 8.59333 62.3616 8.42 61.7616 8.42C61.1882 8.42 60.7016 8.58667 60.3016 8.92C59.9149 9.25333 59.6749 9.72667 59.5816 10.34H63.8616ZM68.4858 11.4C68.4858 10.2533 68.6991 9.24667 69.1258 8.38C69.5658 7.51333 70.1591 6.84667 70.9058 6.38C71.6524 5.91333 72.4858 5.68 73.4058 5.68C74.1391 5.68 74.8058 5.83333 75.4058 6.14C76.0191 6.44667 76.4991 6.86 76.8458 7.38V2.2H80.2658V17H76.8458V15.4C76.5258 15.9333 76.0658 16.36 75.4658 16.68C74.8791 17 74.1924 17.16 73.4058 17.16C72.4858 17.16 71.6524 16.9267 70.9058 16.46C70.1591 15.98 69.5658 15.3067 69.1258 14.44C68.6991 13.56 68.4858 12.5467 68.4858 11.4ZM76.8458 11.42C76.8458 10.5667 76.6058 9.89333 76.1258 9.4C75.6591 8.90667 75.0858 8.66 74.4058 8.66C73.7258 8.66 73.1458 8.90667 72.6658 9.4C72.1991 9.88 71.9658 10.5467 71.9658 11.4C71.9658 12.2533 72.1991 12.9333 72.6658 13.44C73.1458 13.9333 73.7258 14.18 74.4058 14.18C75.0858 14.18 75.6591 13.9333 76.1258 13.44C76.6058 12.9467 76.8458 12.2733 76.8458 11.42Z" fill="black"/>
<path d="M98.64 2.96V17H95.22V8.58L92.08 17H89.32L86.16 8.56V17H82.74V2.96H86.78L90.72 12.68L94.62 2.96H98.64ZM106.179 17.16C105.086 17.16 104.099 16.9267 103.219 16.46C102.353 15.9933 101.666 15.3267 101.159 14.46C100.666 13.5933 100.419 12.58 100.419 11.42C100.419 10.2733 100.673 9.26667 101.179 8.4C101.686 7.52 102.379 6.84667 103.259 6.38C104.139 5.91333 105.126 5.68 106.219 5.68C107.313 5.68 108.299 5.91333 109.179 6.38C110.059 6.84667 110.753 7.52 111.259 8.4C111.766 9.26667 112.019 10.2733 112.019 11.42C112.019 12.5667 111.759 13.58 111.239 14.46C110.733 15.3267 110.033 15.9933 109.139 16.46C108.259 16.9267 107.273 17.16 106.179 17.16ZM106.179 14.2C106.833 14.2 107.386 13.96 107.839 13.48C108.306 13 108.539 12.3133 108.539 11.42C108.539 10.5267 108.313 9.84 107.859 9.36C107.419 8.88 106.873 8.64 106.219 8.64C105.553 8.64 104.999 8.88 104.559 9.36C104.119 9.82667 103.899 10.5133 103.899 11.42C103.899 12.3133 104.113 13 104.539 13.48C104.979 13.96 105.526 14.2 106.179 14.2ZM118.854 13.8L121.274 5.84H124.914L120.954 17H116.734L112.774 5.84H116.434L118.854 13.8ZM128.073 4.68C127.473 4.68 126.98 4.50667 126.593 4.16C126.22 3.8 126.033 3.36 126.033 2.84C126.033 2.30667 126.22 1.86667 126.593 1.52C126.98 1.16 127.473 0.979999 128.073 0.979999C128.66 0.979999 129.14 1.16 129.513 1.52C129.9 1.86667 130.093 2.30667 130.093 2.84C130.093 3.36 129.9 3.8 129.513 4.16C129.14 4.50667 128.66 4.68 128.073 4.68ZM129.773 5.84V17H126.353V5.84H129.773ZM139.052 5.72C140.358 5.72 141.398 6.14667 142.172 7C142.958 7.84 143.352 9 143.352 10.48V17H139.952V10.94C139.952 10.1933 139.758 9.61333 139.372 9.2C138.985 8.78667 138.465 8.58 137.812 8.58C137.158 8.58 136.638 8.78667 136.252 9.2C135.865 9.61333 135.672 10.1933 135.672 10.94V17H132.252V5.84H135.672V7.32C136.018 6.82667 136.485 6.44 137.072 6.16C137.658 5.86667 138.318 5.72 139.052 5.72ZM149.968 5.68C150.755 5.68 151.442 5.84 152.028 6.16C152.628 6.48 153.088 6.9 153.408 7.42V5.84H156.828V16.98C156.828 18.0067 156.622 18.9333 156.208 19.76C155.808 20.6 155.188 21.2667 154.348 21.76C153.522 22.2533 152.488 22.5 151.248 22.5C149.595 22.5 148.255 22.1067 147.228 21.32C146.202 20.5467 145.615 19.4933 145.468 18.16H148.848C148.955 18.5867 149.208 18.92 149.608 19.16C150.008 19.4133 150.502 19.54 151.088 19.54C151.795 19.54 152.355 19.3333 152.768 18.92C153.195 18.52 153.408 17.8733 153.408 16.98V15.4C153.075 15.92 152.615 16.3467 152.028 16.68C151.442 17 150.755 17.16 149.968 17.16C149.048 17.16 148.215 16.9267 147.468 16.46C146.722 15.98 146.128 15.3067 145.688 14.44C145.262 13.56 145.048 12.5467 145.048 11.4C145.048 10.2533 145.262 9.24667 145.688 8.38C146.128 7.51333 146.722 6.84667 147.468 6.38C148.215 5.91333 149.048 5.68 149.968 5.68ZM153.408 11.42C153.408 10.5667 153.168 9.89333 152.688 9.4C152.222 8.90667 151.648 8.66 150.968 8.66C150.288 8.66 149.708 8.90667 149.228 9.4C148.762 9.88 148.528 10.5467 148.528 11.4C148.528 12.2533 148.762 12.9333 149.228 13.44C149.708 13.9333 150.288 14.18 150.968 14.18C151.648 14.18 152.222 13.9333 152.688 13.44C153.168 12.9467 153.408 12.2733 153.408 11.42Z" fill="#3D8AFF"/>
</svg>
